<svg xmlns="http://www.w3.org/2000/svg" version="1.1" xmlns:xlink="http://www.w3.org/1999/xlink" xmlns:svgjs="http://svgjs.dev/svgjs" width="1600" height="750" preserveAspectRatio="none" viewBox="0 0 1600 750"><g mask="url(&quot;#SvgjsMask4536&quot;)" fill="none"><rect width="1600" height="750" x="0" y="0" fill="url(&quot;#SvgjsRadialGradient4537&quot;)"></rect><path d="M144.41778687986394 389.0922135614903L-0.8931005254341358 524.5968082469819 134.61149416005745 669.9076956522799 279.9223815653555 534.4031009667884z" fill="rgba(219, 219, 219, 0.68)" class="triangle-float3"></path><path d="M855.56 563.53 a181.81 181.81 0 1 0 363.62 0 a181.81 181.81 0 1 0 -363.62 0z" fill="rgba(219, 219, 219, 0.68)" class="triangle-float2"></path><path d="M1450.16,138.31C1476.573,136.607,1493.58,113.797,1507.309,91.168C1521.805,67.275,1538.56,39.4,1524.993,14.967C1511.211,-9.851,1478.547,-11.984,1450.16,-11.749C1422.331,-11.518,1392.497,-7.218,1377.444,16.19C1361.35,41.216,1363.417,73.899,1378.64,99.464C1393.516,124.447,1421.143,140.181,1450.16,138.31" fill="rgba(219, 219, 219, 0.68)" class="triangle-float2"></path><path d="M-64.99 350.32 a164.93 164.93 0 1 0 329.86 0 a164.93 164.93 0 1 0 -329.86 0z" fill="rgba(219, 219, 219, 0.68)" class="triangle-float1"></path></g><defs><mask id="SvgjsMask4536"><rect width="1600" height="750" fill="#ffffff"></rect></mask><radialGradient cx="0%" cy="0%" r="1767.06" gradientUnits="userSpaceOnUse" id="SvgjsRadialGradient4537"><stop stop-color="rgba(21, 112, 197, 0.81)" offset="0"></stop><stop stop-color="rgba(93, 0, 158, 0.81)" offset="1"></stop></radialGradient><style>
                @keyframes float1 {
                    0%{transform: translate(0, 0)}
                    50%{transform: translate(-10px, 0)}
                    100%{transform: translate(0, 0)}
                }

                .triangle-float1 {
                    animation: float1 5s infinite;
                }

                @keyframes float2 {
                    0%{transform: translate(0, 0)}
                    50%{transform: translate(-5px, -5px)}
                    100%{transform: translate(0, 0)}
                }

                .triangle-float2 {
                    animation: float2 4s infinite;
                }

                @keyframes float3 {
                    0%{transform: translate(0, 0)}
                    50%{transform: translate(0, -10px)}
                    100%{transform: translate(0, 0)}
                }

                .triangle-float3 {
                    animation: float3 6s infinite;
                }
            </style></defs></svg>